<svg xmlns="http://www.w3.org/2000/svg" viewBox="0 0 40 40" width="40" height="40">
  <defs>
    <linearGradient id="g" x1="4" y1="36" x2="36" y2="4" gradientUnits="userSpaceOnUse">
      <stop stop-color="#1FD9E8"/>
      <stop offset="0.5" stop-color="#2ADCC2"/>
      <stop offset="1" stop-color="#4CE38C"/>
    </linearGradient>
  </defs>
  <rect width="40" height="40" rx="11" fill="#0a0a0c"/>
  <path d="M11 28V12h6.2c2.6 0 4.3 1.6 4.3 4 0 1.9-1.1 3.3-2.8 3.8L22 28h-3.2l-2.9-7.6h-2v7.6H11Zm2.9-10.1h3c1.2 0 1.9-.7 1.9-1.8s-.7-1.8-1.9-1.8h-3v3.6Z" fill="url(#g)"/>
  <path d="M24.4 28V12h4.8c4.3 0 7 3.1 7 8s-2.7 8-7 8h-4.8Zm2.9-2.6h1.8c2.6 0 4.1-2 4.1-5.4s-1.5-5.4-4.1-5.4h-1.8v10.8Z" fill="url(#g)"/>
</svg>
